<svg width="19" height="18" viewBox="0 0 19 18" fill="none" xmlns="http://www.w3.org/2000/svg">
<path d="M9.5 16.875C5.15076 16.875 1.625 13.3492 1.625 9C1.625 4.65076 5.15076 1.125 9.5 1.125C13.8492 1.125 17.375 4.65076 17.375 9C17.375 13.3492 13.8492 16.875 9.5 16.875ZM9.5 18C14.4706 18 18.5 13.9706 18.5 9C18.5 4.02944 14.4706 0 9.5 0C4.52944 0 0.5 4.02944 0.5 9C0.5 13.9706 4.52944 18 9.5 18Z" fill="white"/>
<path d="M12.8409 5.59088C12.8329 5.59884 12.8254 5.60726 12.8185 5.61612L8.91207 10.5938L6.55686 8.23863C6.22736 7.90912 5.69312 7.90912 5.36362 8.23863C5.03411 8.56813 5.03411 9.10236 5.36362 9.43187L8.34087 12.4091C8.67038 12.7386 9.20461 12.7386 9.53411 12.4091C9.54145 12.4018 9.54838 12.394 9.55486 12.3859L14.0461 6.77191C14.3636 6.44154 14.3596 5.91634 14.0341 5.59088C13.7046 5.26137 13.1704 5.26137 12.8409 5.59088Z" fill="white"/>
</svg>
