<svg width="64" height="64" viewBox="0 0 64 64" fill="none" xmlns="http://www.w3.org/2000/svg">
<g filter="url(#filter0_d_3300_235821)">
<rect width="60" height="60" rx="30" fill="white" shape-rendering="crispEdges"/>
<path d="M20.375 22.125C19.8918 22.125 19.5 21.7332 19.5 21.25C19.5 20.7668 19.8918 20.375 20.375 20.375H39.625C40.1082 20.375 40.5 20.7668 40.5 21.25C40.5 21.7332 40.1082 22.125 39.625 22.125H20.375Z" fill="#3E4957"/>
<path d="M23.875 18.625C23.3918 18.625 23 18.2332 23 17.75C23 17.2668 23.3918 16.875 23.875 16.875H36.125C36.6082 16.875 37 17.2668 37 17.75C37 18.2332 36.6082 18.625 36.125 18.625H23.875Z" fill="#3E4957"/>
<path d="M16 38.75C16 40.1997 17.1753 41.375 18.625 41.375H41.375C42.8247 41.375 44 40.1997 44 38.75V26.5C44 25.0503 42.8247 23.875 41.375 23.875H18.625C17.1753 23.875 16 25.0503 16 26.5V38.75ZM18.625 39.625C18.1418 39.625 17.75 39.2332 17.75 38.75V26.5C17.75 26.0168 18.1418 25.625 18.625 25.625H41.375C41.8582 25.625 42.25 26.0168 42.25 26.5V38.75C42.25 39.2332 41.8582 39.625 41.375 39.625H18.625Z" fill="#3E4957"/>
<rect x="0.5" y="0.5" width="59" height="59" rx="29.5" stroke="#3E4957" shape-rendering="crispEdges"/>
</g>
<defs>
<filter id="filter0_d_3300_235821" x="0" y="0" width="64" height="64" filterUnits="userSpaceOnUse" color-interpolation-filters="sRGB">
<feFlood flood-opacity="0" result="BackgroundImageFix"/>
<feColorMatrix in="SourceAlpha" type="matrix" values="0 0 0 0 0 0 0 0 0 0 0 0 0 0 0 0 0 0 127 0" result="hardAlpha"/>
<feOffset dx="4" dy="4"/>
<feComposite in2="hardAlpha" operator="out"/>
<feColorMatrix type="matrix" values="0 0 0 0 0.752941 0 0 0 0 0.85098 0 0 0 0 1 0 0 0 1 0"/>
<feBlend mode="normal" in2="BackgroundImageFix" result="effect1_dropShadow_3300_235821"/>
<feBlend mode="normal" in="SourceGraphic" in2="effect1_dropShadow_3300_235821" result="shape"/>
</filter>
</defs>
</svg>
