<svg width="64" height="64" viewBox="0 0 64 64" fill="none" xmlns="http://www.w3.org/2000/svg">
<g filter="url(#filter0_d_3300_235827)">
<rect width="60" height="60" rx="30" fill="white" shape-rendering="crispEdges"/>
<path d="M40.5 23.875V40.5C40.5 42.433 38.933 44 37 44H23C21.067 44 19.5 42.433 19.5 40.5V19.5C19.5 17.567 21.067 16 23 16H32.625L40.5 23.875ZM35.25 23.875C33.8003 23.875 32.625 22.6997 32.625 21.25V17.75H23C22.0335 17.75 21.25 18.5335 21.25 19.5V40.5C21.25 41.4665 22.0335 42.25 23 42.25H37C37.9665 42.25 38.75 41.4665 38.75 40.5V23.875H35.25Z" fill="#3E4957"/>
<rect x="0.5" y="0.5" width="59" height="59" rx="29.5" stroke="#3E4957" shape-rendering="crispEdges"/>
</g>
<defs>
<filter id="filter0_d_3300_235827" x="0" y="0" width="64" height="64" filterUnits="userSpaceOnUse" color-interpolation-filters="sRGB">
<feFlood flood-opacity="0" result="BackgroundImageFix"/>
<feColorMatrix in="SourceAlpha" type="matrix" values="0 0 0 0 0 0 0 0 0 0 0 0 0 0 0 0 0 0 127 0" result="hardAlpha"/>
<feOffset dx="4" dy="4"/>
<feComposite in2="hardAlpha" operator="out"/>
<feColorMatrix type="matrix" values="0 0 0 0 0.752941 0 0 0 0 0.85098 0 0 0 0 1 0 0 0 1 0"/>
<feBlend mode="normal" in2="BackgroundImageFix" result="effect1_dropShadow_3300_235827"/>
<feBlend mode="normal" in="SourceGraphic" in2="effect1_dropShadow_3300_235827" result="shape"/>
</filter>
</defs>
</svg>
