<svg width="121" height="40" viewBox="0 0 121 40" fill="none" xmlns="http://www.w3.org/2000/svg">
<path fill-rule="evenodd" clip-rule="evenodd" d="M43.0771 3.1936H47.5103V0H43.0742C41.3121 0 39.877 1.43347 39.877 3.1936V7.66464H43.0742V3.19647C43.0746 3.19601 43.075 3.19549 43.0756 3.19497C43.0761 3.19444 43.0766 3.19398 43.0771 3.1936Z" fill="#3A83F6"/>
<path fill-rule="evenodd" clip-rule="evenodd" d="M113.366 0H117.802C119.565 0 121 1.43347 121 3.1936V7.66464H117.802V3.19647C117.802 3.19601 117.802 3.19549 117.801 3.19497C117.8 3.19444 117.8 3.19398 117.799 3.1936H113.366V0Z" fill="#3A83F6"/>
<path fill-rule="evenodd" clip-rule="evenodd" d="M39.877 36.8066V32.3755H43.0742V36.8037C43.0746 36.8042 43.075 36.8047 43.0756 36.8052C43.0761 36.8058 43.0766 36.8062 43.0771 36.8066H47.5103V40.0002H43.0742C41.3121 40.0002 39.877 38.5667 39.877 36.8066Z" fill="#3A83F6"/>
<path fill-rule="evenodd" clip-rule="evenodd" d="M117.802 36.8037V32.3755H121V36.8066C121 38.5667 119.565 40.0002 117.802 40.0002H113.366V36.8066H117.799C117.8 36.8062 117.8 36.8058 117.801 36.8052C117.802 36.8047 117.802 36.8042 117.802 36.8037ZM117.802 36.8066C117.802 36.8067 117.802 36.8068 117.802 36.8068C117.802 36.8068 117.802 36.8068 117.802 36.8068C117.802 36.8068 117.802 36.8068 117.802 36.8066C117.803 36.8066 117.803 36.8066 117.803 36.8066C117.803 36.8066 117.803 36.8066 117.802 36.8066Z" fill="#3A83F6"/>
<path d="M15.9237 28.611L15.8987 18.1238L10.7491 26.7633H8.92426L3.79969 18.3485V28.611H0V11.1323H3.34972L9.89918 21.9941L16.3486 11.1323H19.6734L19.7234 28.611H15.9237Z" fill="white"/>
<path d="M37.4239 25.365V28.611H23.875V11.1323H37.0989V14.3784H27.8996V18.1737H36.024V21.3199H27.8996V25.365H37.4239Z" fill="white"/>
<path d="M53.5773 11.1322C55.1272 11.1322 56.4687 11.3902 57.602 11.9062C58.7519 12.4222 59.6351 13.1547 60.2518 14.1035C60.8684 15.0524 61.1767 16.176 61.1767 17.4744C61.1767 18.7562 60.8684 19.8798 60.2518 20.8453C59.6351 21.7941 58.7519 22.5266 57.602 23.0426C56.4687 23.542 55.1272 23.7917 53.5773 23.7917H50.0526V28.6108H46.0029V11.1322H53.5773ZM53.3523 20.4957C54.5689 20.4957 55.4938 20.2377 56.1271 19.7217C56.7604 19.189 57.077 18.4399 57.077 17.4744C57.077 16.4923 56.7604 15.7432 56.1271 15.2272C55.4938 14.6945 54.5689 14.4281 53.3523 14.4281H50.0526V20.4957H53.3523Z" fill="#3A83F6"/>
<path d="M74.7131 24.8654H66.5887L65.0389 28.6108H60.8892L68.6886 11.1322H72.6882L80.5126 28.6108H76.2629L74.7131 24.8654ZM73.4382 21.7941L70.6634 15.1023L67.8886 21.7941H73.4382Z" fill="#3A83F6"/>
<path d="M93.908 19.5968H97.6077V26.6882C96.6577 27.404 95.5578 27.9533 94.3079 28.3362C93.058 28.719 91.7998 28.9105 90.5332 28.9105C88.7167 28.9105 87.0835 28.5276 85.6336 27.7619C84.1838 26.9795 83.0422 25.9058 82.2089 24.5408C81.3923 23.1591 80.984 21.6027 80.984 19.8715C80.984 18.1403 81.3923 16.5922 82.2089 15.2272C83.0422 13.8455 84.1921 12.7718 85.6586 12.0061C87.1252 11.2237 88.775 10.8325 90.6082 10.8325C92.1414 10.8325 93.533 11.0905 94.7829 11.6066C96.0328 12.1226 97.0827 12.8717 97.9326 13.8538L95.3328 16.2509C94.0829 14.9358 92.5747 14.2783 90.8082 14.2783C89.6916 14.2783 88.7001 14.5114 87.8335 14.9775C86.9669 15.4436 86.2919 16.1011 85.8086 16.9501C85.3253 17.799 85.0837 18.7728 85.0837 19.8715C85.0837 20.9535 85.3253 21.919 85.8086 22.768C86.2919 23.6169 86.9585 24.2828 87.8085 24.7655C88.6751 25.2316 89.6583 25.4647 90.7582 25.4647C91.9248 25.4647 92.9747 25.215 93.908 24.7156V19.5968Z" fill="#3A83F6"/>
<path d="M114.918 25.3648V28.6108H101.369V11.1322H114.593V14.3782H105.394V18.1736H113.518V21.3197H105.394V25.3648H114.918Z" fill="#3A83F6"/>
</svg>
