<svg width="121" height="40" viewBox="0 0 121 40" fill="none" xmlns="http://www.w3.org/2000/svg">
<path fill-rule="evenodd" clip-rule="evenodd" d="M43.0771 3.1936H47.5103V0H43.0742C41.3121 0 39.877 1.43347 39.877 3.1936V7.66464H43.0742V3.19647C43.0746 3.19601 43.075 3.19549 43.0756 3.19497C43.0761 3.19444 43.0766 3.19398 43.0771 3.1936Z" fill="#3A83F6"/>
<path fill-rule="evenodd" clip-rule="evenodd" d="M113.366 0H117.802C119.565 0 121 1.43347 121 3.1936V7.66464H117.802V3.19647C117.802 3.19601 117.802 3.19549 117.801 3.19497C117.8 3.19444 117.8 3.19398 117.799 3.1936H113.366V0Z" fill="#3A83F6"/>
<path fill-rule="evenodd" clip-rule="evenodd" d="M39.877 36.8064V32.3752H43.0742V36.8035C43.0746 36.804 43.075 36.8045 43.0756 36.805C43.0761 36.8055 43.0766 36.806 43.0771 36.8064H47.5103V40H43.0742C41.3121 40 39.877 38.5665 39.877 36.8064Z" fill="#3A83F6"/>
<path fill-rule="evenodd" clip-rule="evenodd" d="M117.802 36.8035V32.3752H121V36.8064C121 38.5665 119.565 40 117.802 40H113.366V36.8064H117.799C117.8 36.806 117.8 36.8055 117.801 36.805C117.802 36.8045 117.802 36.804 117.802 36.8035ZM117.802 36.8064C117.802 36.8065 117.802 36.8066 117.802 36.8066C117.802 36.8066 117.802 36.8066 117.802 36.8066C117.802 36.8066 117.802 36.8065 117.802 36.8064C117.803 36.8064 117.803 36.8064 117.803 36.8064C117.803 36.8064 117.803 36.8064 117.802 36.8064Z" fill="#3A83F6"/>
<path d="M15.9237 28.6108L15.8987 18.1236L10.7491 26.763H8.92426L3.79969 18.3483V28.6108H0V11.1321H3.34972L9.89918 21.9938L16.3486 11.1321H19.6734L19.7234 28.6108H15.9237Z" fill="#3E4857"/>
<path d="M37.4239 25.3647V28.6108H23.875V11.1321H37.0989V14.3781H27.8996V18.1735H36.024V21.3197H27.8996V25.3647H37.4239Z" fill="#3E4857"/>
<path d="M53.5773 11.1323C55.1272 11.1323 56.4687 11.3903 57.602 11.9063C58.7519 12.4224 59.6351 13.1548 60.2518 14.1037C60.8684 15.0525 61.1767 16.1761 61.1767 17.4745C61.1767 18.7563 60.8684 19.8799 60.2518 20.8454C59.6351 21.7943 58.7519 22.5267 57.602 23.0427C56.4687 23.5421 55.1272 23.7918 53.5773 23.7918H50.0526V28.6109H46.0029V11.1323H53.5773ZM53.3523 20.4959C54.5689 20.4959 55.4938 20.2378 56.1271 19.7218C56.7604 19.1891 57.077 18.44 57.077 17.4745C57.077 16.4924 56.7604 15.7433 56.1271 15.2273C55.4938 14.6946 54.5689 14.4283 53.3523 14.4283H50.0526V20.4959H53.3523Z" fill="#3A83F6"/>
<path d="M74.7131 24.8655H66.5887L65.0389 28.6109H60.8892L68.6886 11.1323H72.6882L80.5126 28.6109H76.2629L74.7131 24.8655ZM73.4382 21.7943L70.6634 15.1024L67.8886 21.7943H73.4382Z" fill="#3A83F6"/>
<path d="M93.908 19.5969H97.6077V26.6883C96.6577 27.4041 95.5578 27.9534 94.3079 28.3363C93.058 28.7192 91.7998 28.9106 90.5332 28.9106C88.7167 28.9106 87.0835 28.5277 85.6336 27.762C84.1838 26.9796 83.0422 25.9059 82.2089 24.5409C81.3923 23.1593 80.984 21.6028 80.984 19.8716C80.984 18.1404 81.3923 16.5923 82.2089 15.2273C83.0422 13.8456 84.1921 12.7719 85.6586 12.0062C87.1252 11.2238 88.775 10.8326 90.6082 10.8326C92.1414 10.8326 93.533 11.0907 94.7829 11.6067C96.0328 12.1227 97.0827 12.8718 97.9326 13.854L95.3328 16.251C94.0829 14.936 92.5747 14.2784 90.8082 14.2784C89.6916 14.2784 88.7001 14.5115 87.8335 14.9776C86.9669 15.4437 86.2919 16.1012 85.8086 16.9502C85.3253 17.7991 85.0837 18.773 85.0837 19.8716C85.0837 20.9536 85.3253 21.9191 85.8086 22.7681C86.2919 23.617 86.9585 24.2829 87.8085 24.7656C88.6751 25.2317 89.6583 25.4648 90.7582 25.4648C91.9248 25.4648 92.9747 25.2151 93.908 24.7157V19.5969Z" fill="#3A83F6"/>
<path d="M114.918 25.3649V28.6109H101.369V11.1323H114.593V14.3783H105.394V18.1737H113.518V21.3198H105.394V25.3649H114.918Z" fill="#3A83F6"/>
</svg>
