<svg width="188" height="62" viewBox="0 0 188 62" fill="none" xmlns="http://www.w3.org/2000/svg">
<path fill-rule="evenodd" clip-rule="evenodd" d="M66.7001 4.95008H73.5645V0H66.6957C63.9672 0 61.7451 2.22188 61.7451 4.95008V11.8802H66.6957V4.95453C66.6963 4.95381 66.697 4.95302 66.6978 4.9522C66.6986 4.95138 66.6994 4.95067 66.7001 4.95008Z" fill="white"/>
<path fill-rule="evenodd" clip-rule="evenodd" d="M175.535 0H182.404C185.133 0 187.355 2.22188 187.355 4.95008V11.8802H182.404V4.95453C182.403 4.95381 182.403 4.95302 182.402 4.9522C182.401 4.95138 182.4 4.95067 182.4 4.95008H175.535V0Z" fill="white"/>
<path fill-rule="evenodd" clip-rule="evenodd" d="M61.7451 57.0499V50.1816H66.6957V57.0454C66.6963 57.0461 66.697 57.0469 66.6978 57.0478C66.6986 57.0486 66.6994 57.0493 66.7001 57.0499H73.5645V62H66.6957C63.9672 62 61.7451 59.7781 61.7451 57.0499Z" fill="white"/>
<path fill-rule="evenodd" clip-rule="evenodd" d="M182.404 57.0454V50.1816H187.355V57.0499C187.355 59.7781 185.133 62 182.404 62H175.535V57.0499H182.4C182.4 57.0493 182.401 57.0486 182.402 57.0478C182.403 57.0469 182.403 57.0461 182.404 57.0454ZM182.404 57.0499C182.404 57.0501 182.404 57.0502 182.404 57.0502C182.404 57.0502 182.404 57.0503 182.404 57.0503C182.404 57.0503 182.404 57.0501 182.404 57.0499C182.404 57.0499 182.404 57.0499 182.404 57.0499C182.404 57.0499 182.404 57.0499 182.404 57.0499Z" fill="white"/>
<path d="M24.656 44.3468L24.6173 28.0917L16.6438 41.4828H13.8182L5.88338 28.44V44.3468H0V17.2549H5.18667L15.3278 34.0906L25.314 17.2549H30.462L30.5394 44.3468H24.656Z" fill="white"/>
<path d="M57.9466 39.3155V44.3468H36.9677V17.2549H57.4434V22.2862H43.1994V28.1691H55.7791V33.0456H43.1994V39.3155H57.9466Z" fill="white"/>
<path d="M82.9576 17.255C85.3574 17.255 87.4346 17.6549 89.1893 18.4547C90.9698 19.2546 92.3374 20.3899 93.2922 21.8606C94.2469 23.3313 94.7243 25.0729 94.7243 27.0855C94.7243 29.0722 94.2469 30.8138 93.2922 32.3103C92.3374 33.781 90.9698 34.9163 89.1893 35.7162C87.4346 36.4902 85.3574 36.8773 82.9576 36.8773H77.4999V44.3469H71.2295V17.255H82.9576ZM82.6092 31.7685C84.4929 31.7685 85.9251 31.3686 86.9056 30.5687C87.8862 29.7431 88.3765 28.582 88.3765 27.0855C88.3765 25.5632 87.8862 24.4021 86.9056 23.6022C85.9251 22.7766 84.4929 22.3637 82.6092 22.3637H77.4999V31.7685H82.6092Z" fill="white"/>
<path d="M115.684 38.5415H103.104L100.704 44.3469H94.2792L106.356 17.255H112.549L124.664 44.3469H118.084L115.684 38.5415ZM113.71 33.781L109.413 23.4087L105.117 33.781H113.71Z" fill="white"/>
<path d="M145.405 30.3752H151.134V41.3668C149.663 42.4763 147.96 43.3277 146.024 43.9212C144.089 44.5146 142.141 44.8113 140.18 44.8113C137.367 44.8113 134.838 44.2179 132.593 43.031C130.348 41.8183 128.581 40.1541 127.29 38.0383C126.026 35.8968 125.394 33.4843 125.394 30.8009C125.394 28.1175 126.026 25.718 127.29 23.6022C128.581 21.4607 130.361 19.7964 132.632 18.6096C134.903 17.3969 137.457 16.7905 140.296 16.7905C142.67 16.7905 144.824 17.1905 146.76 17.9903C148.695 18.7902 150.321 19.9513 151.637 21.4736L147.611 25.189C145.676 23.1507 143.341 22.1315 140.605 22.1315C138.877 22.1315 137.341 22.4927 135.999 23.2152C134.658 23.9376 133.612 24.9568 132.864 26.2727C132.116 27.5886 131.742 29.098 131.742 30.8009C131.742 32.4781 132.116 33.9746 132.864 35.2905C133.612 36.6063 134.645 37.6384 135.961 38.3867C137.302 39.1091 138.825 39.4704 140.528 39.4704C142.334 39.4704 143.96 39.0833 145.405 38.3093V30.3752Z" fill="white"/>
<path d="M177.937 39.3155V44.3469H156.958V17.255H177.434V22.2863H163.19V28.1691H175.77V33.0457H163.19V39.3155H177.937Z" fill="white"/>
</svg>
