<svg width="107" height="35" viewBox="0 0 107 35" fill="none" xmlns="http://www.w3.org/2000/svg">
<path fill-rule="evenodd" clip-rule="evenodd" d="M38.2552 2.7944H42.1343V0H38.2527C36.7108 0 35.4551 1.25429 35.4551 2.7944V6.70656H38.2527V2.79691C38.253 2.7965 38.2534 2.79606 38.2539 2.7956C38.2543 2.79513 38.2548 2.79473 38.2552 2.7944Z" fill="#3A83F6"/>
<path fill-rule="evenodd" clip-rule="evenodd" d="M99.7578 0H103.639C105.181 0 106.437 1.25429 106.437 2.7944V6.70656H103.639V2.79691C103.639 2.7965 103.639 2.79606 103.638 2.7956C103.638 2.79513 103.637 2.79473 103.637 2.7944H99.7578V0Z" fill="#3A83F6"/>
<path fill-rule="evenodd" clip-rule="evenodd" d="M35.4551 32.2054V28.3281H38.2527V32.2028C38.253 32.2032 38.2534 32.2037 38.2539 32.2042C38.2543 32.2046 38.2548 32.205 38.2552 32.2054H42.1343V34.9998H38.2527C36.7108 34.9998 35.4551 33.7455 35.4551 32.2054Z" fill="#3A83F6"/>
<path fill-rule="evenodd" clip-rule="evenodd" d="M103.639 32.2028V28.3281H106.437V32.2054C106.437 33.7455 105.181 34.9998 103.639 34.9998H99.7578V32.2054H103.637C103.637 32.205 103.638 32.2046 103.638 32.2042C103.639 32.2037 103.639 32.2032 103.639 32.2028ZM103.639 32.2054C103.639 32.2055 103.639 32.2055 103.639 32.2056C103.639 32.2056 103.639 32.2056 103.639 32.2056C103.639 32.2056 103.639 32.2055 103.639 32.2054C103.64 32.2054 103.64 32.2053 103.64 32.2054C103.64 32.2054 103.64 32.2054 103.639 32.2054Z" fill="#3A83F6"/>
<path d="M14.4957 25.0341L14.4738 15.8578L9.96797 23.4173H8.37123L3.88722 16.0544V25.0341H0.5625V9.74023H3.49351L9.22428 19.2443L14.8676 9.74023H17.7767L17.8204 25.0341H14.4957Z" fill="white"/>
<path d="M33.3084 22.1938V25.0341H21.4531V9.74023H33.024V12.5805H24.9747V15.9015H32.0835V18.6544H24.9747V22.1938H33.3084Z" fill="white"/>
<path d="M47.442 9.74069C48.7982 9.74069 49.972 9.96646 50.9636 10.418C51.9698 10.8695 52.7426 11.5104 53.2822 12.3406C53.8217 13.1709 54.0915 14.1541 54.0915 15.2902C54.0915 16.4117 53.8217 17.3949 53.2822 18.2397C52.7426 19.0699 51.9698 19.7108 50.9636 20.1624C49.972 20.5993 48.7982 20.8178 47.442 20.8178H44.3579V25.0345H40.8145V9.74069H47.442ZM47.2452 17.9338C48.3097 17.9338 49.119 17.7081 49.6731 17.2565C50.2272 16.7904 50.5043 16.135 50.5043 15.2902C50.5043 14.4308 50.2272 13.7754 49.6731 13.3238C49.119 12.8577 48.3097 12.6247 47.2452 12.6247H44.3579V17.9338H47.2452Z" fill="#3A83F6"/>
<path d="M65.9358 21.7573H58.827L57.4709 25.0345H53.8399L60.6644 9.74069H64.1641L71.0104 25.0345H67.292L65.9358 21.7573ZM64.8203 19.0699L62.3924 13.2146L59.9644 19.0699H64.8203Z" fill="#3A83F6"/>
<path d="M82.7313 17.1473H85.9686V23.3522C85.1374 23.9785 84.175 24.4592 83.0813 24.7942C81.9877 25.1292 80.8867 25.2967 79.7785 25.2967C78.189 25.2967 76.76 24.9617 75.4913 24.2917C74.2227 23.6071 73.2238 22.6676 72.4947 21.4733C71.7802 20.2643 71.4229 18.9024 71.4229 17.3876C71.4229 15.8728 71.7802 14.5182 72.4947 13.3238C73.2238 12.1149 74.23 11.1754 75.5132 10.5054C76.7964 9.82081 78.2401 9.47852 79.8441 9.47852C81.1856 9.47852 82.4033 9.70428 83.4969 10.1558C84.5906 10.6073 85.5092 11.2628 86.2529 12.1222L83.9781 14.2196C82.8845 13.0689 81.5648 12.4936 80.0191 12.4936C79.0421 12.4936 78.1744 12.6975 77.4162 13.1053C76.6579 13.5132 76.0673 14.0885 75.6444 14.8314C75.2216 15.5742 75.0101 16.4263 75.0101 17.3876C75.0101 18.3344 75.2216 19.1792 75.6444 19.922C76.0673 20.6649 76.6506 21.2475 77.3943 21.6699C78.1526 22.0777 79.0129 22.2816 79.9753 22.2816C80.9961 22.2816 81.9147 22.0632 82.7313 21.6262V17.1473Z" fill="#3A83F6"/>
<path d="M101.115 22.1942V25.0345H89.2602V9.74069H100.831V12.581H92.7817V15.9019H99.8905V18.6548H92.7817V22.1942H101.115Z" fill="#3A83F6"/>
</svg>
