<svg width="368" height="226" viewBox="0 0 368 226" fill="none" xmlns="http://www.w3.org/2000/svg">
<g clip-path="url(#clip0_3300_236616)">
<rect width="368" height="226" rx="8" fill="#D5D5D5"/>
<rect width="368" height="226" rx="8" fill="url(#paint0_linear_3300_236616)"/>
<path d="M172.338 104.833C170.725 113.637 169.112 122.44 167.496 131.244C167.496 148.917 174.944 161.18 180.916 161.438C186.929 161.696 195.554 149.995 196.916 132.018C195.968 122.9 195.022 113.781 194.077 104.663L172.338 104.833Z" fill="white"/>
<path d="M181.119 162.083H180.889C177.617 161.939 174.066 158.599 171.389 153.154C168.465 147.203 166.855 139.422 166.853 131.244V131.128L171.792 104.19L194.649 104.012L197.563 132.01V132.067C196.936 140.362 194.683 148.117 191.22 153.9C188.133 159.051 184.378 162.083 181.119 162.083ZM168.143 131.303C168.143 139.265 169.715 146.821 172.548 152.584C174.977 157.526 178.195 160.672 180.946 160.793C186.285 161.028 194.897 149.954 196.27 132.026L193.498 105.308L172.878 105.468L168.143 131.303Z" fill="#3E4957"/>
<path d="M158.367 106.108C160.572 111.679 164.142 116.606 168.749 120.436C172.104 123.189 177.08 127.288 183.674 127.146C191.018 126.986 196.108 121.579 199.674 117.84C203.015 114.308 205.644 110.165 207.416 105.638C208.462 105.627 209.487 105.348 210.394 104.828C211.344 104.265 212.495 103.194 213.914 98.3268C215.375 93.3228 216.106 90.8195 214.727 89.1188C213.778 87.9472 212.258 87.6039 211.207 87.4955C212.018 83.9985 212.271 80.3951 211.956 76.8191C211.649 73.3816 211.011 63.9156 204.077 58.4496C199.341 54.7101 193.653 53.7372 186.897 53.6779C179.191 53.6108 170.582 52.3875 163.467 57.2083C150.465 66.0137 152.594 86.3703 152.703 87.2762C151.952 87.2168 150.429 87.2117 149.441 88.1975C148.736 88.8994 148.3 90.1046 148.924 93.4518C149.273 95.3228 151.133 105.351 156.509 106.18C157.128 106.272 157.758 106.247 158.367 106.108Z" fill="white"/>
<path d="M183.335 128.039C176.589 128.039 171.544 123.889 168.184 121.125C163.645 117.355 160.085 112.543 157.809 107.099C157.329 107.147 156.844 107.134 156.367 107.063C151.146 106.255 148.911 98.2885 148.044 93.6148C147.456 90.4483 147.677 88.696 148.818 87.5656C149.528 86.8585 150.524 86.4533 151.732 86.3759C151.401 81.9706 150.934 64.6257 162.973 56.4732C169.206 52.2511 176.331 52.4782 183.227 52.6976C184.502 52.7389 185.707 52.7776 186.915 52.7879C192.634 52.837 199.212 53.4666 204.636 57.7506C211.669 63.3017 212.508 72.8375 212.825 76.4247L212.851 76.7395C213.148 80.0904 212.958 83.4668 212.286 86.763C213.646 87.0572 214.701 87.6611 215.429 88.5695C217.099 90.6341 216.324 93.2922 214.779 98.5879C213.403 103.298 212.216 104.8 210.856 105.605C209.994 106.106 209.033 106.413 208.04 106.503C206.234 110.937 203.614 114.994 200.316 118.465L200.236 118.55C196.701 122.266 191.361 127.879 183.702 128.047L183.335 128.039ZM158.911 105.071L159.195 105.778C161.343 111.214 164.823 116.022 169.317 119.76C172.478 122.359 177.229 126.269 183.34 126.269H183.655C190.574 126.119 195.408 121.037 198.936 117.326L199.018 117.241C202.292 113.791 204.866 109.739 206.595 105.308L206.809 104.758L207.4 104.743C208.295 104.735 209.173 104.498 209.95 104.054C210.487 103.736 211.609 103.073 213.068 98.0717C214.438 93.3722 215.132 91.0135 214.043 89.6766C213.457 88.954 212.477 88.5153 211.124 88.3863L210.12 88.2831L210.348 87.2998C211.137 83.8949 211.383 80.3864 211.075 76.9047L211.049 76.5873C210.722 72.8891 209.96 64.2308 203.532 59.1545C199.552 56.0112 194.579 54.6435 186.897 54.5764C185.671 54.5764 184.398 54.5247 183.17 54.486C176.561 54.2744 169.725 54.0576 163.975 57.9519C151.303 66.5328 153.569 86.9721 153.595 87.1785L153.724 88.2573L152.638 88.1695C151.838 88.1076 150.743 88.1695 150.078 88.8327C149.644 89.2663 149.223 90.1618 149.804 93.2948C151.133 100.461 153.629 104.838 156.645 105.305C157.155 105.38 157.674 105.359 158.176 105.244L158.911 105.071Z" fill="#3E4957"/>
<path d="M170.4 94.8765C172.016 94.8765 173.327 93.5662 173.327 91.95C173.327 90.3337 172.016 89.0234 170.4 89.0234C168.784 89.0234 167.474 90.3337 167.474 91.95C167.474 93.5662 168.784 94.8765 170.4 94.8765Z" fill="#3E4957"/>
<path d="M196.643 94.8765C198.26 94.8765 199.57 93.5662 199.57 91.95C199.57 90.3337 198.26 89.0234 196.643 89.0234C195.027 89.0234 193.717 90.3337 193.717 91.95C193.717 93.5662 195.027 94.8765 196.643 94.8765Z" fill="#3E4957"/>
<path d="M186.505 102.093C186.748 102.235 186.201 104.521 184.381 105.081C181.986 105.819 179.22 103.017 179.38 102.758C179.54 102.5 181.96 104.377 184.255 103.69C185.751 103.244 186.314 101.979 186.505 102.093Z" fill="#3E4957"/>
<path d="M191.141 109.871C191.657 110.717 188.044 115.391 183.497 115.453C180.083 115.502 176.921 112.952 177.19 112.08C177.376 111.476 179.12 111.938 182.684 111.587C188.248 111.035 190.757 109.239 191.141 109.871Z" fill="#3E4957"/>
<path d="M159.11 49.0481C164.403 43.2028 170.653 40.5111 174.594 39.2414C169.564 34.4361 168.421 27.4398 171.239 22.9829C175.11 16.8511 184.659 18.4331 189.046 20.1441C191.139 20.957 194.664 22.2241 196.014 25.5636C197.562 29.4347 195.681 34.6399 191.111 38.4671C204.53 42.6969 214.391 53.2521 216.402 65.8227C218.089 76.3675 213.687 84.7806 211.942 87.7588C211.281 85.7007 210.257 83.7778 208.918 82.0812C205.617 77.9521 201.472 76.7185 197.975 75.0746C194.282 73.3403 189.397 70.2461 184.401 64.2743C180.599 69.8435 176.589 72.5945 173.562 74.081C168.462 76.5869 164.958 76.0888 159.626 79.2424C156.515 81.1078 153.797 83.5623 151.626 86.4684C151.11 84.5484 145.783 63.7581 159.11 49.0481Z" fill="#3E4957"/>
<path d="M263.371 319.766L97.9469 319.249C92.2004 312.608 86.8573 305.627 81.9465 298.346C75.4638 288.735 69.7088 278.559 67.7526 274.087C54.3509 243.438 92.6358 190.753 123.238 161.826C136.499 149.308 151.231 138.446 167.11 129.479C166.651 137.221 173.017 143.492 180.014 144.259C188.256 145.162 197.79 138.483 197.304 129.051C215.751 138.255 232.714 150.173 247.628 164.407C280.641 196.02 314.469 249.988 299.243 276.668C297.018 280.564 292.169 286.405 282.468 298.088C274.666 307.484 267.918 314.901 263.371 319.766Z" fill="#D8E6FD"/>
<path d="M90.2048 285.88C90.0128 285.88 89.8243 285.829 89.6582 285.733C89.492 285.637 89.354 285.499 89.2578 285.333C89.1617 285.167 89.1108 284.978 89.1104 284.786C89.1099 284.594 89.1598 284.406 89.2551 284.239C93.4307 276.925 130.183 212.666 131.478 210.89C131.655 210.672 131.909 210.53 132.188 210.493C132.467 210.457 132.749 210.529 132.976 210.694C133.203 210.86 133.358 211.106 133.409 211.383C133.46 211.66 133.402 211.945 133.249 212.18C132.147 213.729 105.227 260.698 91.1467 285.323C91.0523 285.49 90.9156 285.63 90.7503 285.728C90.585 285.825 90.3969 285.878 90.2048 285.88Z" fill="#3E4957"/>
<path d="M275.29 285.881C275.097 285.881 274.907 285.83 274.74 285.733C274.572 285.636 274.434 285.496 274.338 285.328C260.257 260.703 233.338 213.729 232.236 212.186C232.082 211.95 232.025 211.665 232.076 211.388C232.126 211.112 232.281 210.865 232.508 210.7C232.736 210.534 233.018 210.462 233.296 210.498C233.575 210.535 233.829 210.677 234.006 210.895C235.297 212.663 272.054 276.923 276.24 284.244C276.335 284.411 276.385 284.6 276.385 284.792C276.384 284.984 276.333 285.172 276.237 285.338C276.141 285.504 276.003 285.642 275.837 285.738C275.671 285.835 275.482 285.885 275.29 285.886V285.881Z" fill="#3E4957"/>
<path d="M155.156 95.6148C154.766 96.3503 153.971 96.2264 153.721 96.8897C153.205 98.2807 156.201 100.399 155.953 100.714C155.801 100.91 154.462 100.343 153.404 99.282C152.983 98.8614 151.651 97.5633 151.651 95.6148C151.651 93.5915 152.426 91.9502 153.404 91.9502C154.493 91.9502 155.796 94.4122 155.156 95.6148Z" fill="#3E4957"/>
<path d="M208.884 95.6148C209.274 96.3503 210.069 96.2264 210.317 96.8897C210.833 98.2807 207.839 100.399 208.087 100.714C208.239 100.91 209.576 100.343 210.637 99.282C211.055 98.8614 212.389 97.5633 212.389 95.6148C212.389 93.5915 211.615 91.9502 210.637 91.9502C209.548 91.9502 208.244 94.4122 208.884 95.6148Z" fill="#3E4957"/>
<path d="M163.96 85.2195C163.858 85.2203 163.758 85.1993 163.666 85.1579C163.574 85.1165 163.492 85.0556 163.425 84.9795C163.3 84.8379 163.236 84.6526 163.247 84.464C163.258 84.2754 163.344 84.0989 163.485 83.973C164.917 82.6966 166.712 81.8969 168.619 81.6847C170.526 81.4725 172.452 81.8582 174.13 82.7885C174.212 82.8334 174.285 82.894 174.344 82.967C174.402 83.0399 174.446 83.1237 174.472 83.2136C174.499 83.3035 174.507 83.3976 174.497 83.4907C174.487 83.5838 174.459 83.6741 174.414 83.7563C174.369 83.8384 174.308 83.911 174.235 83.9697C174.163 84.0285 174.079 84.0723 173.989 84.0986C173.899 84.125 173.805 84.1334 173.712 84.1234C173.619 84.1133 173.528 84.085 173.446 84.0401C171.919 83.202 170.16 82.8883 168.437 83.1472C166.948 83.3821 165.558 84.0395 164.432 85.0414C164.301 85.156 164.133 85.2193 163.96 85.2195Z" fill="#3E4957"/>
<path d="M200.775 84.861C200.617 84.8612 200.462 84.8085 200.337 84.7113C198.963 83.6414 197.276 83.0512 195.534 83.0312H195.498C194.007 83.0348 192.548 83.4607 191.289 84.2597C191.21 84.3105 191.122 84.3453 191.029 84.362C190.937 84.3788 190.842 84.3772 190.75 84.3573C190.658 84.3374 190.571 84.2996 190.494 84.2461C190.417 84.1926 190.351 84.1244 190.3 84.0455C190.25 83.9665 190.215 83.8783 190.198 83.7859C190.181 83.6935 190.183 83.5987 190.203 83.5069C190.223 83.4151 190.26 83.3281 190.314 83.251C190.367 83.1738 190.436 83.1079 190.515 83.0571C192.133 82.0259 194.032 81.523 195.949 81.6178C197.865 81.7125 199.705 82.4003 201.214 83.5861C201.332 83.6773 201.418 83.8029 201.46 83.9453C201.502 84.0878 201.499 84.2399 201.451 84.3805C201.403 84.521 201.311 84.6429 201.19 84.7291C201.069 84.8152 200.924 84.8614 200.775 84.861Z" fill="#3E4957"/>
<path d="M267.59 323.894H95.3996C91.7608 323.894 88.7233 321.189 88.3955 317.656L77.3294 197.937C76.9604 193.927 80.2018 190.471 84.3361 190.471H279.82C283.98 190.471 287.232 193.968 286.819 198.002L274.589 317.721C274.23 321.226 271.206 323.894 267.59 323.894Z" fill="#3E4957"/>
<path d="M161.176 147.115C164.427 152.212 174.27 153.998 181.305 147.631C188.015 153.894 197.997 152.276 201.693 146.599C204.88 141.695 203.499 133.633 197.306 129.05C196.503 137.486 189.207 143.69 181.305 143.244C174.175 142.841 168.045 137.104 167.111 129.566C159.996 134.013 158.226 142.488 161.176 147.115Z" fill="#3E4957"/>
<path d="M181.434 40.919C180.954 41.1358 180.492 41.399 180.004 41.6003C179.513 41.8083 178.989 41.9289 178.456 41.9565C177.387 42.0313 176.35 41.6571 175.418 41.1823C174.95 40.9365 174.496 40.6642 174.058 40.3668C173.62 40.0726 173.183 39.7706 172.768 39.448C171.922 38.8068 171.143 38.0804 170.445 37.2802C169.744 36.4755 169.145 35.587 168.662 34.635C168.187 33.674 167.825 32.6618 167.581 31.6181C167.079 29.5172 167.042 27.3321 167.472 25.2154C167.919 23.0441 169.06 21.0774 170.724 19.6127C172.434 18.2017 174.52 17.3241 176.724 17.0887C178.903 16.8466 181.109 17.1016 183.176 17.8345C185.235 18.5719 187.123 19.7184 188.727 21.205L188.392 21.0759C189.974 21.0497 191.551 21.27 193.065 21.7288C193.832 21.9691 194.561 22.3166 195.23 22.7611C195.911 23.2131 196.499 23.7913 196.962 24.4644C197.405 25.1453 197.71 25.9063 197.86 26.7045C198.006 27.4861 198.044 28.2842 197.971 29.0761C197.809 30.6301 197.378 32.1441 196.699 33.5511C196.041 34.9561 195.185 36.2597 194.157 37.4222C193.643 37.9978 193.076 38.5239 192.464 38.9938C191.857 39.4721 191.185 39.8622 190.469 40.1526C189.749 40.4352 188.978 40.5636 188.206 40.5293C187.432 40.5061 186.681 40.3797 185.919 40.3074C185.159 40.2145 184.39 40.2145 183.63 40.3074C182.873 40.4054 182.133 40.6114 181.434 40.919ZM181.434 40.919C182.131 40.6008 182.869 40.3836 183.628 40.2739C184.389 40.1822 185.158 40.1822 185.919 40.2739C186.681 40.341 187.439 40.47 188.203 40.47C188.966 40.4888 189.724 40.3463 190.428 40.0519C191.832 39.4584 193.008 38.4261 193.976 37.2673C194.943 36.0963 195.738 34.7927 196.335 33.3962C196.942 32.0189 197.306 30.5468 197.411 29.0452C197.489 27.5664 197.205 26.049 196.379 24.8799C195.553 23.7108 194.219 22.9753 192.815 22.5572C191.388 22.1601 189.908 21.986 188.428 22.0411H188.239L188.092 21.9069C186.57 20.5323 184.79 19.4727 182.856 18.7894C181.894 18.452 180.899 18.2159 179.888 18.0849C178.878 17.9568 177.857 17.9472 176.845 18.0565C174.817 18.2368 172.883 19.0005 171.279 20.2553C169.703 21.5631 168.592 23.3456 168.112 25.3367C167.63 27.3607 167.595 29.4655 168.009 31.5046C168.212 32.5283 168.531 33.5256 168.959 34.4776C169.398 35.4277 169.955 36.319 170.616 37.1305C170.944 37.54 171.298 37.9279 171.676 38.2919C172.054 38.6556 172.449 39.0001 172.861 39.3242C173.274 39.6519 173.7 39.9616 174.133 40.2635C174.562 40.5698 175.008 40.8507 175.47 41.1048C176.391 41.5978 177.421 41.9746 178.482 41.9075C179.014 41.8843 179.538 41.7681 180.03 41.5642C180.489 41.3913 180.951 41.1332 181.434 40.919Z" fill="#3E4957"/>
</g>
<defs>
<linearGradient id="paint0_linear_3300_236616" x1="395.879" y1="327.871" x2="18.0987" y2="4.55893" gradientUnits="userSpaceOnUse">
<stop offset="0.0379516" stop-color="white"/>
<stop offset="0.0380516" stop-color="white"/>
<stop offset="0.588542" stop-color="#CBE3FF"/>
<stop offset="1" stop-color="#ABC6FF"/>
</linearGradient>
<clipPath id="clip0_3300_236616">
<rect width="368" height="226" rx="8" fill="white"/>
</clipPath>
</defs>
</svg>
