<svg width="368" height="226" viewBox="0 0 368 226" fill="none" xmlns="http://www.w3.org/2000/svg">
<g clip-path="url(#clip0_3300_236702)">
<rect width="368" height="226" rx="8" fill="#D5D5D5"/>
<rect width="368" height="226" rx="8" fill="url(#paint0_linear_3300_236702)"/>
<path d="M175.677 67.3844L177.091 91.3465L167.329 96.5007L183.439 110.888L200.967 96.7417L192.762 92.091L195.758 67.3232L175.677 67.3844Z" fill="white"/>
<path d="M183.41 112.075L165.764 96.3246L176.159 90.8394L174.72 66.5069L196.768 66.4277L193.722 91.6056L202.559 96.6087L183.41 112.075ZM168.893 96.7095L183.467 109.716L199.372 96.8821L191.798 92.5659L194.743 68.2153L176.63 68.2801L178.022 91.8717L168.893 96.7095Z" fill="#3E4957"/>
<path d="M164.927 66.1943C165.441 68.8056 167.085 75.1576 172.732 80.186C174.922 82.1354 179.069 85.8294 184.961 85.6891C192.191 85.5201 196.755 79.7363 198.079 78.0566C200.809 74.5367 202.413 70.2742 202.679 65.8274C203.593 65.4927 204.444 65.0063 205.197 64.3887C207.761 62.2629 209.657 58.069 208.074 56.116C207.894 55.8965 206.93 54.7851 204.118 55.0369C205.556 43.4048 200.323 33.0675 191.888 29.4994C184.832 26.514 178.03 29.316 176.782 29.8591C168.25 33.571 162.797 43.2213 163.114 54.3175C160.956 54.2852 160.164 55.0369 159.877 55.3966C158.237 57.4072 160.384 61.8709 162.754 64.3887C163.405 65.0735 164.134 65.6795 164.927 66.1943Z" fill="white"/>
<path d="M184.65 86.5921C178.578 86.5921 174.403 82.8729 172.137 80.8587C166.817 76.1217 164.842 70.1186 164.123 66.734C163.396 66.2319 162.723 65.6557 162.116 65.0147C159.688 62.4465 157.08 57.4361 159.195 54.8356C159.655 54.2709 160.544 53.6163 162.216 53.4616C162.195 42.3618 167.712 32.841 176.438 29.0428C178.366 28.2047 185.207 25.6977 192.264 28.6831C200.994 32.377 206.198 42.7359 205.152 54.1163C207.411 54.1702 208.436 55.1126 208.799 55.555C210.723 57.9289 208.767 62.6264 205.796 65.0866C205.118 65.6459 204.365 66.1072 203.558 66.457C203.204 70.8892 201.557 75.1201 198.821 78.6251C194.739 83.7973 190.095 86.4806 185.017 86.5992L184.65 86.5921ZM163.001 55.2241C161.839 55.2241 160.983 55.4867 160.591 55.9722C159.404 57.429 161.137 61.3675 163.425 63.7774C164.022 64.4094 164.692 64.9684 165.421 65.4427L165.738 65.6477L165.81 66.0074C166.421 69.0863 168.209 74.9383 173.334 79.4991C175.456 81.391 179.406 84.8943 184.959 84.7757C189.473 84.6713 193.656 82.2183 197.39 77.4849C200.016 74.1161 201.553 70.0271 201.796 65.7628L201.836 65.1801L202.386 64.9751C203.204 64.6777 203.965 64.2435 204.637 63.691C207.044 61.6984 208.486 58.026 207.393 56.6736C207.26 56.5153 206.493 55.7205 204.213 55.9255L203.102 56.0262L203.242 54.9184C204.616 43.9301 199.811 33.8158 191.552 30.3196C185.168 27.6184 178.92 29.9096 177.165 30.6793C168.892 34.2762 163.727 43.5524 164.036 54.2889L164.062 55.2277H163.123L163.001 55.2241Z" fill="#3E4957"/>
<path d="M174.977 63.4641C176.304 63.4641 177.38 62.3883 177.38 61.0614C177.38 59.7344 176.304 58.6587 174.977 58.6587C173.65 58.6587 172.574 59.7344 172.574 61.0614C172.574 62.3883 173.65 63.4641 174.977 63.4641Z" fill="#3E4957"/>
<path d="M193.628 63.4641C194.955 63.4641 196.031 62.3883 196.031 61.0614C196.031 59.7344 194.955 58.6587 193.628 58.6587C192.301 58.6587 191.226 59.7344 191.226 61.0614C191.226 62.3883 192.301 63.4641 193.628 63.4641Z" fill="#3E4957"/>
<path d="M186.896 67.6651C187.073 67.773 186.655 69.5355 185.317 69.9779C183.562 70.5606 181.566 68.4169 181.677 68.237C181.789 68.0572 183.562 69.4599 185.238 68.9168C186.335 68.5535 186.756 67.5824 186.896 67.6651Z" fill="#3E4957"/>
<path d="M189.706 74.1542C190.116 74.9743 187.652 78.0316 184.671 78.1107C181.196 78.2043 178.426 74.2226 178.916 73.4349C179.243 72.8989 180.926 74.0751 184.671 74.2298C187.918 74.3665 189.422 73.5895 189.706 74.1542Z" fill="#3E4957"/>
<path d="M242.844 227.627L124.965 227.289C121.109 223.055 88.7127 186.54 100.41 152.78C104.546 140.839 112.999 132.692 121.897 124.132C140.565 106.147 160.239 97.1301 172.681 92.5693C175.022 97.7164 180.198 100.925 185.662 100.651C188.062 100.508 190.382 99.7299 192.383 98.3957C194.384 97.0615 195.994 95.2196 197.049 93.0585C213.302 100.32 228.44 109.855 242.01 121.376C258.26 135.192 269.921 145.115 273.691 160.035C281.945 192.68 246.272 224.634 242.844 227.627Z" fill="#3A83F6"/>
<path d="M62.3659 195.209C55.9707 200.64 52.1473 209.733 51.712 217.926C49.723 255.215 117.059 288.809 154.722 307.595C168.749 314.599 180.619 319.584 188.604 322.745L200.898 260.035C140.417 203.669 85.2417 175.779 62.3659 195.209Z" fill="white"/>
<path d="M189.108 323.748L188.389 323.457C176.99 318.939 165.574 313.835 154.456 308.286C135.411 298.786 109.327 285.773 87.9903 270.332C76.2898 261.868 67.2653 253.517 61.1651 245.514C53.9714 236.079 50.5688 226.781 51.0436 217.879C51.5184 208.977 55.8058 199.834 61.9672 194.6C73.2145 185.047 92.5403 186.396 117.815 198.499C142.205 210.175 171.091 231.252 201.355 259.451L201.668 259.746L189.108 323.748ZM62.3664 195.208L62.7837 195.809C56.9244 200.783 52.8456 209.477 52.3924 217.973C51.9392 226.468 55.2375 235.414 62.1938 244.539C68.2077 252.427 77.135 260.681 88.7204 269.066C109.971 284.442 135.997 297.427 155.003 306.904C165.851 312.3 176.983 317.306 188.094 321.738L200.136 260.322C170.092 232.36 141.439 211.47 117.254 199.895C92.4359 188.025 73.6101 186.612 62.7765 195.813L62.3664 195.208Z" fill="#3E4957"/>
<path d="M305.617 194.719C312.012 200.15 315.836 209.243 316.271 217.44C318.26 254.729 250.924 288.319 213.261 307.109C199.233 314.112 187.364 319.094 179.379 322.256L167.085 259.545C227.566 203.179 282.741 175.289 305.617 194.719Z" fill="white"/>
<path d="M178.875 323.26L166.329 259.261L166.642 258.97C196.906 230.767 225.792 209.693 250.182 198.014C275.468 185.911 294.783 184.562 306.03 194.119C312.191 199.352 316.461 208.506 316.954 217.394C317.446 226.282 314.022 235.598 306.832 245.029C300.718 253.032 291.725 261.38 280.007 269.847C258.671 285.284 232.586 298.298 213.541 307.801C202.423 313.347 191.007 318.451 179.609 322.968L178.875 323.26ZM167.84 259.833L179.882 321.253C191 316.818 202.132 311.829 212.973 306.419C231.978 296.938 258.005 283.954 279.255 268.577C290.841 260.193 299.757 251.942 305.782 244.05C312.738 234.925 316.036 225.987 315.583 217.484C315.13 208.981 311.051 200.298 305.192 195.32C294.358 186.12 275.522 187.533 250.714 199.406C226.536 210.988 197.884 231.875 167.84 259.833Z" fill="#3E4957"/>
<path d="M176.955 83.9988C177.567 87.236 179.527 89.9911 182.235 90.9119C186.296 92.2967 191.86 89.4732 193.713 83.6787C191.103 84.9198 188.258 85.5902 185.368 85.6454C182.479 85.7006 179.611 85.1393 176.955 83.9988Z" fill="#3E4957"/>
<path d="M198.376 55.3532C198.3 55.3535 198.224 55.3373 198.155 55.3057C198.085 55.274 198.023 55.2276 197.973 55.1697C197.279 54.3827 196.37 53.8152 195.359 53.5368C193.909 53.1848 192.379 53.4215 191.103 54.195C190.982 54.2631 190.838 54.2813 190.703 54.2458C190.568 54.2104 190.452 54.124 190.38 54.0048C190.307 53.8856 190.283 53.7429 190.314 53.6067C190.344 53.4705 190.426 53.3513 190.542 53.2742C191.297 52.8105 192.136 52.5025 193.012 52.3684C193.887 52.2344 194.78 52.277 195.639 52.4937C196.856 52.8261 197.948 53.509 198.779 54.4576C198.826 54.5104 198.862 54.5719 198.885 54.6387C198.908 54.7055 198.918 54.7762 198.914 54.8468C198.909 54.9173 198.891 54.9863 198.86 55.0497C198.829 55.1132 198.785 55.1699 198.732 55.2165C198.635 55.3054 198.508 55.3542 198.376 55.3532Z" fill="#3E4957"/>
<path d="M170.405 55.2449C170.261 55.2445 170.123 55.1877 170.02 55.0866C169.919 54.9855 169.862 54.8483 169.862 54.7054C169.862 54.5624 169.919 54.4253 170.02 54.3241C170.647 53.6982 171.393 53.2043 172.214 52.8713C173.035 52.5383 173.914 52.3731 174.8 52.3854C176.061 52.4283 177.281 52.8397 178.311 53.5688C178.428 53.6513 178.508 53.777 178.533 53.9183C178.557 54.0597 178.525 54.205 178.442 54.3223C178.36 54.4396 178.234 54.5194 178.092 54.544C177.951 54.5686 177.806 54.5361 177.689 54.4536C176.833 53.8445 175.817 53.5005 174.768 53.4645C174.029 53.4602 173.297 53.6016 172.613 53.8806C171.93 54.1595 171.307 54.5706 170.783 55.0902C170.681 55.1886 170.546 55.244 170.405 55.2449Z" fill="#3E4957"/>
<path d="M185.05 40.7753C182.108 43.4621 179.684 44.1923 177.946 44.3253C176.662 44.4261 173.868 44.3433 171.112 46.0806L170.987 46.1633C165.365 49.9724 165.624 59.6334 165.721 63.1511C165.803 66.2049 165.976 70.6685 168.738 75.5386C170.723 79.0096 173.556 81.9204 176.972 83.9984C177.015 86.4466 177.06 88.8961 177.108 91.3467C174.95 92.656 166.645 97.3282 156.628 94.9435C150.668 93.5048 141.14 88.8685 139.723 80.8008C139.445 79.0816 139.514 77.3239 139.928 75.6321C141.604 67.9277 148.111 66.5753 152.031 60.1406C155.952 53.7059 151.7 51.3967 154.578 42.2967C157.912 31.8299 167.846 21.3164 178.087 21.7228C180.656 21.8544 183.157 22.5941 185.385 23.8809C191.424 21.1402 195.528 21.9962 197.279 22.5393C207.8 25.8053 210.588 42.4658 211.145 45.8648C212.584 54.4396 210.185 55.4 212.584 59.8565C216.303 66.7624 223.504 67.0501 225.932 74.7941C226.622 76.8424 226.79 79.0307 226.421 81.1605C225.061 88.3865 217.303 91.9186 215.188 92.8862C205.063 97.4973 194.866 93.0408 192.747 92.0589L193.934 82.2611C197.002 80.1762 199.361 77.2048 200.696 73.7438C201.508 71.576 201.885 69.27 201.808 66.9566C203.405 52.2815 201.124 47.6704 198.502 46.3863C196.999 45.667 195.236 45.9367 191.647 44.5483C189.271 43.6296 187.047 42.3576 185.05 40.7753Z" fill="#3E4957"/>
<path d="M164.905 59.4069C164.905 59.7665 164.43 59.7342 164.294 60.2485C164.099 60.9895 164.901 61.7628 164.725 62.0002C164.549 62.2376 163.139 61.7736 162.545 60.5866C161.995 59.4788 162.074 58.317 162.725 57.9933C163.527 57.5905 164.912 58.7954 164.905 59.4069Z" fill="#3E4957"/>
<path d="M203.184 59.4069C203.184 59.7665 203.662 59.7342 203.795 60.2485C203.989 60.9895 203.191 61.7628 203.363 62.0002C203.536 62.2376 204.95 61.7736 205.543 60.5866C206.097 59.4788 206.014 58.317 205.363 57.9933C204.576 57.5905 203.18 58.7954 203.184 59.4069Z" fill="#3E4957"/>
<path d="M139.199 184.051C138.978 184.052 138.765 183.97 138.6 183.823C138.436 183.676 138.331 183.473 138.307 183.253L136.509 167.046L158.547 146.544C158.721 146.381 158.953 146.294 159.192 146.303C159.43 146.311 159.655 146.414 159.818 146.589C159.981 146.763 160.067 146.995 160.059 147.234C160.05 147.472 159.948 147.697 159.773 147.86L138.394 167.743L140.095 183.055C140.12 183.292 140.051 183.529 139.902 183.715C139.753 183.901 139.537 184.021 139.3 184.048L139.199 184.051Z" fill="#3E4957"/>
<path d="M228.785 184.052H228.674C228.437 184.025 228.221 183.905 228.072 183.719C227.923 183.533 227.854 183.296 227.879 183.059L229.58 167.748L208.204 147.85C208.118 147.769 208.048 147.673 207.999 147.565C207.95 147.458 207.923 147.341 207.919 147.223C207.914 147.105 207.933 146.988 207.975 146.877C208.016 146.766 208.079 146.665 208.159 146.578C208.24 146.492 208.337 146.422 208.444 146.373C208.552 146.324 208.668 146.297 208.786 146.293C208.904 146.288 209.022 146.308 209.132 146.349C209.243 146.39 209.344 146.453 209.431 146.533L231.469 167.035L229.67 183.243C229.649 183.463 229.547 183.668 229.383 183.817C229.22 183.967 229.007 184.05 228.785 184.052Z" fill="#3E4957"/>
<path d="M235.708 172.621H132.953C128.541 172.621 124.965 176.198 124.965 180.61V247.834C124.965 252.246 128.541 255.823 132.953 255.823H235.708C240.12 255.823 243.696 252.246 243.696 247.834V180.61C243.696 176.198 240.12 172.621 235.708 172.621Z" fill="#3E4957"/>
<path d="M229.317 249.133H139.346C137.497 249.131 135.723 248.396 134.415 247.088C133.107 245.781 132.371 244.008 132.368 242.159V186.285C132.37 184.435 133.106 182.662 134.414 181.353C135.722 180.045 137.496 179.31 139.346 179.308H229.317C231.167 179.31 232.941 180.045 234.249 181.353C235.557 182.662 236.293 184.435 236.295 186.285V242.159C236.292 244.008 235.556 245.781 234.248 247.088C232.94 248.396 231.167 249.131 229.317 249.133ZM139.346 179.617C137.578 179.618 135.882 180.321 134.632 181.571C133.381 182.822 132.678 184.517 132.677 186.285V242.159C132.679 243.927 133.383 245.622 134.633 246.872C135.883 248.122 137.578 248.825 139.346 248.827H229.317C231.086 248.825 232.781 248.122 234.032 246.872C235.282 245.622 235.986 243.927 235.989 242.159V186.285C235.987 184.517 235.284 182.821 234.033 181.571C232.782 180.321 231.086 179.618 229.317 179.617H139.346Z" fill="white"/>
<path d="M184.33 220.832C185.721 220.832 186.848 217.872 186.848 214.221C186.848 210.57 185.721 207.61 184.33 207.61C182.94 207.61 181.812 210.57 181.812 214.221C181.812 217.872 182.94 220.832 184.33 220.832Z" fill="white"/>
<path d="M184.853 101.565C182.065 101.555 179.338 100.744 176.997 99.2301C174.656 97.7158 172.799 95.5612 171.646 93.0224C171.572 92.8096 171.58 92.5766 171.669 92.3697C171.759 92.1628 171.923 91.997 172.129 91.9052C172.334 91.8133 172.567 91.8022 172.781 91.8738C172.995 91.9455 173.174 92.0949 173.282 92.2923C174.269 94.4905 175.861 96.3622 177.873 97.6883C179.885 99.0143 182.233 99.7399 184.642 99.7799C187.052 99.8199 189.422 99.1727 191.477 97.9142C193.532 96.6557 195.185 94.8378 196.245 92.6735C196.296 92.5669 196.369 92.4716 196.458 92.3931C196.547 92.3146 196.65 92.2544 196.763 92.2161C196.875 92.1778 196.994 92.1621 197.112 92.1699C197.23 92.1777 197.346 92.2088 197.452 92.2615C197.559 92.3141 197.653 92.3873 197.731 92.4768C197.809 92.5662 197.869 92.6702 197.906 92.7827C197.944 92.8953 197.958 93.0141 197.95 93.1324C197.941 93.2507 197.909 93.3661 197.856 93.472C196.653 95.884 194.807 97.9172 192.522 99.3477C190.238 100.778 187.603 101.55 184.907 101.579L184.853 101.565Z" fill="#3E4957"/>
<path d="M133.538 143.278C135.25 143.278 136.638 141.89 136.638 140.178C136.638 138.465 135.25 137.077 133.538 137.077C131.826 137.077 130.438 138.465 130.438 140.178C130.438 141.89 131.826 143.278 133.538 143.278Z" fill="#3E4957"/>
<path d="M148.303 117.748C150.015 117.748 151.403 116.36 151.403 114.648C151.403 112.935 150.015 111.547 148.303 111.547C146.59 111.547 145.202 112.935 145.202 114.648C145.202 116.36 146.59 117.748 148.303 117.748Z" fill="#3E4957"/>
<path d="M158.064 138.084C159.777 138.084 161.165 136.696 161.165 134.983C161.165 133.271 159.777 131.883 158.064 131.883C156.352 131.883 154.964 133.271 154.964 134.983C154.964 136.696 156.352 138.084 158.064 138.084Z" fill="#3E4957"/>
<path d="M186.932 122.716C188.644 122.716 190.032 121.327 190.032 119.615C190.032 117.903 188.644 116.515 186.932 116.515C185.219 116.515 183.831 117.903 183.831 119.615C183.831 121.327 185.219 122.716 186.932 122.716Z" fill="#3E4957"/>
<path d="M216.258 127.045C217.97 127.045 219.358 125.657 219.358 123.945C219.358 122.232 217.97 120.844 216.258 120.844C214.545 120.844 213.157 122.232 213.157 123.945C213.157 125.657 214.545 127.045 216.258 127.045Z" fill="#3E4957"/>
<path d="M198.42 143.278C200.132 143.278 201.52 141.89 201.52 140.178C201.52 138.465 200.132 137.077 198.42 137.077C196.707 137.077 195.319 138.465 195.319 140.178C195.319 141.89 196.707 143.278 198.42 143.278Z" fill="#3E4957"/>
<path d="M222.781 148.605C224.493 148.605 225.882 147.217 225.882 145.505C225.882 143.792 224.493 142.404 222.781 142.404C221.069 142.404 219.681 143.792 219.681 145.505C219.681 147.217 221.069 148.605 222.781 148.605Z" fill="#3E4957"/>
<path d="M208.047 112.147C209.759 112.147 211.147 110.759 211.147 109.047C211.147 107.334 209.759 105.946 208.047 105.946C206.334 105.946 204.946 107.334 204.946 109.047C204.946 110.759 206.334 112.147 208.047 112.147Z" fill="#3E4957"/>
<path d="M242.913 140.484C244.625 140.484 246.013 139.096 246.013 137.383C246.013 135.671 244.625 134.283 242.913 134.283C241.201 134.283 239.812 135.671 239.812 137.383C239.812 139.096 241.201 140.484 242.913 140.484Z" fill="#3E4957"/>
<path d="M246.015 163.201C247.727 163.201 249.115 161.813 249.115 160.1C249.115 158.388 247.727 157 246.015 157C244.302 157 242.914 158.388 242.914 160.1C242.914 161.813 244.302 163.201 246.015 163.201Z" fill="#3E4957"/>
<path d="M264.608 169.399C266.321 169.399 267.709 168.011 267.709 166.298C267.709 164.586 266.321 163.198 264.608 163.198C262.896 163.198 261.508 164.586 261.508 166.298C261.508 168.011 262.896 169.399 264.608 169.399Z" fill="#3E4957"/>
<path d="M253.307 187.828C255.02 187.828 256.408 186.44 256.408 184.727C256.408 183.015 255.02 181.627 253.307 181.627C251.595 181.627 250.207 183.015 250.207 184.727C250.207 186.44 251.595 187.828 253.307 187.828Z" fill="#3E4957"/>
<path d="M178.159 143.278C179.871 143.278 181.26 141.89 181.26 140.178C181.26 138.465 179.871 137.077 178.159 137.077C176.447 137.077 175.059 138.465 175.059 140.178C175.059 141.89 176.447 143.278 178.159 143.278Z" fill="#3E4957"/>
<path d="M183.99 163.758C185.702 163.758 187.091 162.37 187.091 160.658C187.091 158.945 185.702 157.557 183.99 157.557C182.278 157.557 180.89 158.945 180.89 160.658C180.89 162.37 182.278 163.758 183.99 163.758Z" fill="#3E4957"/>
<path d="M159.154 166.297C160.867 166.297 162.255 164.909 162.255 163.197C162.255 161.484 160.867 160.096 159.154 160.096C157.442 160.096 156.054 161.484 156.054 163.197C156.054 164.909 157.442 166.297 159.154 166.297Z" fill="#3E4957"/>
<path d="M210.059 168.268C211.772 168.268 213.16 166.88 213.16 165.168C213.16 163.456 211.772 162.067 210.059 162.067C208.347 162.067 206.959 163.456 206.959 165.168C206.959 166.88 208.347 168.268 210.059 168.268Z" fill="#3E4957"/>
<path d="M172.466 111.55C174.178 111.55 175.566 110.161 175.566 108.449C175.566 106.737 174.178 105.349 172.466 105.349C170.753 105.349 169.365 106.737 169.365 108.449C169.365 110.161 170.753 111.55 172.466 111.55Z" fill="#3E4957"/>
<path d="M111.359 155.406C113.072 155.406 114.46 154.018 114.46 152.306C114.46 150.594 113.072 149.206 111.359 149.206C109.647 149.206 108.259 150.594 108.259 152.306C108.259 154.018 109.647 155.406 111.359 155.406Z" fill="#3E4957"/>
<path d="M128.969 168.268C130.681 168.268 132.069 166.88 132.069 165.168C132.069 163.456 130.681 162.067 128.969 162.067C127.256 162.067 125.868 163.456 125.868 165.168C125.868 166.88 127.256 168.268 128.969 168.268Z" fill="#3E4957"/>
<path d="M114.459 189.353C116.171 189.353 117.559 187.965 117.559 186.253C117.559 184.54 116.171 183.152 114.459 183.152C112.747 183.152 111.358 184.54 111.358 186.253C111.358 187.965 112.747 189.353 114.459 189.353Z" fill="#3E4957"/>
<path d="M183.457 24.3671C181.117 23.5167 178.658 23.0397 176.17 22.9535C173.709 22.8703 171.255 23.2485 168.933 24.0686C166.628 24.8852 164.485 26.1029 162.603 27.6654C160.719 29.2219 159.048 31.0189 157.632 33.0103C156.923 34.0027 156.272 35.0355 155.682 36.1036C155.391 36.6395 155.107 37.1826 154.862 37.7185C154.618 38.2545 154.398 38.83 154.211 39.3983C153.435 41.6776 153.069 44.0768 153.132 46.484C153.157 47.6926 153.255 48.9119 153.377 50.1492C153.499 51.3865 153.636 52.6418 153.683 53.9366C153.746 55.2639 153.638 56.5939 153.359 57.8932C153.061 59.2095 152.541 60.4659 151.823 61.6087C151.474 62.1751 151.082 62.7138 150.65 63.2201L150.334 63.6049L149.974 63.9646C149.737 64.1984 149.521 64.4538 149.255 64.6624C148.273 65.5379 147.194 66.2982 146.039 66.9284C144.924 67.5578 143.82 68.1046 142.86 68.7664C141.908 69.3946 141.09 70.205 140.453 71.1511C140.136 71.6292 139.859 72.1333 139.626 72.6582L139.313 73.4746L139.234 73.6761L139.177 73.8883L139.061 74.3091C138.758 75.4478 138.615 76.6234 138.637 77.8016C138.66 78.9958 138.807 80.1843 139.076 81.3481C139.338 82.5225 139.709 83.67 140.184 84.7759C141.186 86.9636 142.673 88.8946 144.532 90.4229C146.419 91.9761 148.559 93.1928 150.859 94.0197C155.474 95.7318 160.571 96.0664 165.513 95.4261C160.566 96.522 155.42 96.3251 150.571 94.8542C148.126 94.0861 145.832 92.8995 143.791 91.3473C141.721 89.7576 140.049 87.7087 138.907 85.3622C137.795 83.0039 137.167 80.4464 137.062 77.8412C137.015 76.5178 137.154 75.1944 137.475 73.9099L137.598 73.4279L137.659 73.1869L137.745 72.9495L138.105 72.0107C138.367 71.3856 138.683 70.784 139.047 70.2123C139.793 69.0709 140.762 68.0921 141.896 67.3348C142.975 66.5759 144.133 66.0112 145.187 65.4034C146.221 64.8303 147.186 64.1413 148.064 63.3496C148.281 63.1555 148.488 62.9502 148.683 62.7345L148.985 62.418L149.262 62.0763C149.638 61.6309 149.981 61.1584 150.287 60.6627C150.907 59.6894 151.357 58.6179 151.618 57.4939C151.869 56.3464 151.969 55.1712 151.917 53.9978C151.841 51.5951 151.417 49.0845 151.424 46.5056C151.406 43.9064 151.849 41.3246 152.733 38.8803C152.949 38.2653 153.201 37.6862 153.452 37.0819C153.704 36.4776 154.039 35.9273 154.362 35.3734C155.011 34.2716 155.723 33.2087 156.495 32.1902C158.032 30.1426 159.84 28.3131 161.869 26.7518C163.904 25.1917 166.199 24.0055 168.649 23.2485C171.095 22.5124 173.658 22.2499 176.202 22.4752C177.458 22.5881 178.702 22.8071 179.921 23.1298C181.129 23.4529 182.311 23.8665 183.457 24.3671Z" fill="#3E4957"/>
<path d="M208.805 51.0625C209.728 53.596 211.008 55.9845 212.607 58.1555C213.396 59.2222 214.282 60.2132 215.254 61.1157C215.503 61.3387 215.736 61.5688 215.974 61.7811L216.733 62.4069L217.524 62.9896L218.348 63.5291C219.459 64.2269 220.65 64.7916 221.873 65.4139C222.484 65.7196 223.106 66.0577 223.718 66.4282C224.338 66.8111 224.921 67.2492 225.462 67.7374C226.534 68.7361 227.411 69.9253 228.048 71.2443C228.684 72.5392 229.135 73.9171 229.386 75.3375C229.872 78.1738 229.624 81.0872 228.667 83.8009C228.426 84.4772 228.132 85.1337 227.789 85.7647C227.448 86.3893 227.064 86.9901 226.642 87.5631C225.802 88.718 224.792 89.7391 223.646 90.5917C222.527 91.4561 221.297 92.1651 219.988 92.6994C219.342 92.9676 218.681 93.1994 218.01 93.3936C217.671 93.4871 217.33 93.5591 216.992 93.6418C216.823 93.6814 216.654 93.7281 216.481 93.7569L215.967 93.836C213.238 94.2648 210.448 94.0768 207.802 93.2857C210.461 93.7037 213.176 93.5974 215.794 92.9728L216.276 92.8577C216.434 92.8181 216.592 92.7606 216.751 92.7138C217.064 92.6131 217.384 92.5232 217.693 92.4117C218.306 92.1818 218.906 91.9201 219.491 91.6276C219.787 91.4892 220.075 91.3355 220.355 91.1672C220.635 90.9981 220.923 90.8435 221.196 90.6672L221.998 90.1061C222.268 89.9263 222.502 89.6997 222.757 89.4982C224.743 87.8468 226.229 85.6746 227.048 83.2254C227.864 80.7803 228.053 78.1692 227.595 75.6325C227.171 73.1147 226.07 70.6796 224.282 68.9603C222.495 67.2411 219.84 66.3346 217.556 64.6801C216.4 63.8836 215.337 62.9594 214.388 61.9249C213.438 60.9115 212.588 59.8094 211.848 58.6338C210.411 56.3014 209.382 53.7409 208.805 51.0625Z" fill="#3E4957"/>
</g>
<defs>
<linearGradient id="paint0_linear_3300_236702" x1="395.879" y1="327.871" x2="18.0987" y2="4.55893" gradientUnits="userSpaceOnUse">
<stop offset="0.0379516" stop-color="white"/>
<stop offset="0.0380516" stop-color="white"/>
<stop offset="0.588542" stop-color="#CBE3FF"/>
<stop offset="1" stop-color="#ABC6FF"/>
</linearGradient>
<clipPath id="clip0_3300_236702">
<rect width="368" height="226" rx="8" fill="white"/>
</clipPath>
</defs>
</svg>
