<svg width="76" height="30" viewBox="0 0 76 30" fill="none" xmlns="http://www.w3.org/2000/svg">
<g filter="url(#filter0_d_3300_235712)">
<rect x="0.5" y="0.5" width="73" height="27" rx="4" fill="white" shape-rendering="crispEdges"/>
<path d="M11.5293 13.5508C11.5293 12.5299 11.682 11.6732 11.9873 10.9805C12.2152 10.4701 12.5251 10.012 12.917 9.60645C13.3135 9.20085 13.7464 8.90007 14.2158 8.7041C14.8402 8.43978 15.5602 8.30762 16.376 8.30762C17.8525 8.30762 19.0329 8.76562 19.917 9.68164C20.8057 10.5977 21.25 11.8714 21.25 13.5029C21.25 15.1208 20.8102 16.3877 19.9307 17.3037C19.0511 18.2152 17.8753 18.6709 16.4033 18.6709C14.9131 18.6709 13.7282 18.2174 12.8486 17.3105C11.9691 16.3991 11.5293 15.1458 11.5293 13.5508ZM13.6143 13.4824C13.6143 14.6172 13.8763 15.4785 14.4004 16.0664C14.9245 16.6497 15.5898 16.9414 16.3965 16.9414C17.2031 16.9414 17.8639 16.652 18.3789 16.0732C18.8984 15.4899 19.1582 14.6172 19.1582 13.4551C19.1582 12.3066 18.9053 11.4499 18.3994 10.8848C17.8981 10.3197 17.2305 10.0371 16.3965 10.0371C15.5625 10.0371 14.8903 10.3242 14.3799 10.8984C13.8695 11.4681 13.6143 12.3294 13.6143 13.4824ZM22.7676 11.2402H24.5586V12.3066C24.791 11.9421 25.1055 11.6458 25.502 11.418C25.8984 11.1901 26.3382 11.0762 26.8213 11.0762C27.6644 11.0762 28.3799 11.4066 28.9678 12.0674C29.5557 12.7282 29.8496 13.6488 29.8496 14.8291C29.8496 16.0413 29.5534 16.9847 28.9609 17.6592C28.3685 18.3291 27.6507 18.6641 26.8076 18.6641C26.4066 18.6641 26.042 18.5843 25.7139 18.4248C25.3903 18.2653 25.0485 17.9919 24.6885 17.6045V21.2617H22.7676V11.2402ZM24.668 14.7471C24.668 15.5628 24.8298 16.1667 25.1533 16.5586C25.4769 16.946 25.8711 17.1396 26.3359 17.1396C26.7826 17.1396 27.154 16.9619 27.4502 16.6064C27.7464 16.2464 27.8945 15.6585 27.8945 14.8428C27.8945 14.0817 27.7419 13.5166 27.4365 13.1475C27.1312 12.7783 26.7529 12.5938 26.3018 12.5938C25.8324 12.5938 25.4427 12.776 25.1328 13.1406C24.8229 13.5007 24.668 14.0361 24.668 14.7471ZM34.71 11.2402V12.7715H33.3975V15.6973C33.3975 16.2897 33.4089 16.6361 33.4316 16.7363C33.459 16.832 33.516 16.9118 33.6025 16.9756C33.6937 17.0394 33.8031 17.0713 33.9307 17.0713C34.1084 17.0713 34.3659 17.0098 34.7031 16.8867L34.8672 18.377C34.4206 18.5684 33.9147 18.6641 33.3496 18.6641C33.0033 18.6641 32.6911 18.6071 32.4131 18.4932C32.1351 18.3747 31.93 18.2243 31.7979 18.042C31.6702 17.8551 31.5814 17.6045 31.5312 17.29C31.4902 17.0667 31.4697 16.6156 31.4697 15.9365V12.7715H30.5879V11.2402H31.4697V9.79785L33.3975 8.67676V11.2402H34.71ZM36.043 10.2559V8.47852H37.9639V10.2559H36.043ZM36.043 18.5V11.2402H37.9639V18.5H36.043ZM39.7959 11.2402H41.5664V12.2314C42.1999 11.4613 42.9541 11.0762 43.8291 11.0762C44.2939 11.0762 44.6973 11.1719 45.0391 11.3633C45.3809 11.5547 45.6611 11.8441 45.8799 12.2314C46.1989 11.8441 46.543 11.5547 46.9121 11.3633C47.2812 11.1719 47.6755 11.0762 48.0947 11.0762C48.6279 11.0762 49.0791 11.1855 49.4482 11.4043C49.8174 11.6185 50.0931 11.9352 50.2754 12.3545C50.4076 12.6644 50.4736 13.1657 50.4736 13.8584V18.5H48.5527V14.3506C48.5527 13.6305 48.4867 13.1657 48.3545 12.9561C48.1768 12.6826 47.9033 12.5459 47.5342 12.5459C47.2653 12.5459 47.0124 12.6279 46.7754 12.792C46.5384 12.9561 46.3675 13.1976 46.2627 13.5166C46.1579 13.8311 46.1055 14.3301 46.1055 15.0137V18.5H44.1846V14.5215C44.1846 13.8151 44.1504 13.3594 44.082 13.1543C44.0137 12.9492 43.9066 12.7965 43.7607 12.6963C43.6195 12.596 43.4258 12.5459 43.1797 12.5459C42.8835 12.5459 42.6169 12.6257 42.3799 12.7852C42.1429 12.9447 41.972 13.1748 41.8672 13.4756C41.7669 13.7764 41.7168 14.2754 41.7168 14.9727V18.5H39.7959V11.2402ZM53.8301 13.4551L52.0869 13.1406C52.2829 12.4388 52.6201 11.9193 53.0986 11.582C53.5771 11.2448 54.2881 11.0762 55.2314 11.0762C56.0882 11.0762 56.7262 11.1787 57.1455 11.3838C57.5648 11.5843 57.8587 11.8418 58.0273 12.1562C58.2005 12.4661 58.2871 13.0381 58.2871 13.8721L58.2666 16.1143C58.2666 16.7523 58.2962 17.224 58.3555 17.5293C58.4193 17.8301 58.5355 18.1536 58.7041 18.5H56.8037C56.7536 18.3724 56.6921 18.1833 56.6191 17.9326C56.5872 17.8187 56.5645 17.7435 56.5508 17.707C56.2227 18.026 55.8717 18.2653 55.498 18.4248C55.1243 18.5843 54.7256 18.6641 54.3018 18.6641C53.5544 18.6641 52.9642 18.4613 52.5312 18.0557C52.1029 17.6501 51.8887 17.1374 51.8887 16.5176C51.8887 16.1074 51.9867 15.7428 52.1826 15.4238C52.3786 15.1003 52.652 14.8542 53.0029 14.6855C53.3584 14.5124 53.8688 14.362 54.5342 14.2344C55.432 14.0658 56.054 13.9085 56.4004 13.7627V13.5713C56.4004 13.2021 56.3092 12.9401 56.127 12.7852C55.9447 12.6257 55.6006 12.5459 55.0947 12.5459C54.7529 12.5459 54.4863 12.6143 54.2949 12.751C54.1035 12.8831 53.9486 13.1178 53.8301 13.4551ZM56.4004 15.0137C56.1543 15.0957 55.7646 15.1937 55.2314 15.3076C54.6982 15.4215 54.3496 15.5332 54.1855 15.6426C53.9349 15.8203 53.8096 16.0459 53.8096 16.3193C53.8096 16.5882 53.9098 16.8206 54.1104 17.0166C54.3109 17.2126 54.5661 17.3105 54.876 17.3105C55.2223 17.3105 55.5527 17.1966 55.8672 16.9688C56.0996 16.7956 56.2523 16.5837 56.3252 16.333C56.3753 16.1689 56.4004 15.8568 56.4004 15.3965V15.0137ZM60.1875 18.5V8.47852H62.1084V18.5H60.1875Z" fill="#3A83F6"/>
<rect x="1" y="1" width="72" height="26" rx="3.5" stroke="#3A83F6" shape-rendering="crispEdges"/>
</g>
<defs>
<filter id="filter0_d_3300_235712" x="0.5" y="0.5" width="75" height="29" filterUnits="userSpaceOnUse" color-interpolation-filters="sRGB">
<feFlood flood-opacity="0" result="BackgroundImageFix"/>
<feColorMatrix in="SourceAlpha" type="matrix" values="0 0 0 0 0 0 0 0 0 0 0 0 0 0 0 0 0 0 127 0" result="hardAlpha"/>
<feOffset dx="2" dy="2"/>
<feComposite in2="hardAlpha" operator="out"/>
<feColorMatrix type="matrix" values="0 0 0 0 0.45 0 0 0 0 0.663564 0 0 0 0 1 0 0 0 1 0"/>
<feBlend mode="normal" in2="BackgroundImageFix" result="effect1_dropShadow_3300_235712"/>
<feBlend mode="normal" in="SourceGraphic" in2="effect1_dropShadow_3300_235712" result="shape"/>
</filter>
</defs>
</svg>
