<svg width="64" height="64" viewBox="0 0 64 64" fill="none" xmlns="http://www.w3.org/2000/svg">
<g filter="url(#filter0_d_3300_235833)">
<rect width="60" height="60" rx="30" fill="white" shape-rendering="crispEdges"/>
<path d="M42.25 40.5C42.25 40.5 44 40.5 44 38.75C44 37 42.25 31.75 35.25 31.75C28.25 31.75 26.5 37 26.5 38.75C26.5 40.5 28.25 40.5 28.25 40.5H42.25ZM28.2891 38.75C28.283 38.7493 28.2746 38.7482 28.2643 38.7465C28.2594 38.7457 28.2547 38.7448 28.25 38.7439C28.2526 38.2818 28.542 36.9421 29.5787 35.7326C30.5483 34.6014 32.2447 33.5 35.25 33.5C38.2553 33.5 39.9516 34.6014 40.9213 35.7326C41.958 36.9421 42.2474 38.2818 42.25 38.7439C42.2453 38.7448 42.2406 38.7457 42.2357 38.7465C42.2254 38.7482 42.217 38.7493 42.2109 38.75H28.2891Z" fill="#3E4957"/>
<path d="M35.25 28.25C37.183 28.25 38.75 26.683 38.75 24.75C38.75 22.817 37.183 21.25 35.25 21.25C33.317 21.25 31.75 22.817 31.75 24.75C31.75 26.683 33.317 28.25 35.25 28.25ZM40.5 24.75C40.5 27.6495 38.1495 30 35.25 30C32.3505 30 30 27.6495 30 24.75C30 21.8505 32.3505 19.5 35.25 19.5C38.1495 19.5 40.5 21.8505 40.5 24.75Z" fill="#3E4957"/>
<path d="M28.1379 32.2399C27.4942 32.0341 26.7792 31.8844 25.986 31.8078C25.5934 31.77 25.1817 31.75 24.75 31.75C17.75 31.75 16 37 16 38.75C16 39.9167 16.5833 40.5 17.75 40.5H25.1286C24.8822 40.0029 24.75 39.4135 24.75 38.75C24.75 36.982 25.4102 35.1765 26.6572 33.6683C27.0832 33.1531 27.5778 32.6725 28.1379 32.2399ZM24.6101 33.5008C23.5645 35.0988 23 36.9207 23 38.75H17.75C17.75 38.2937 18.0374 36.9475 19.0787 35.7326C20.0332 34.6191 21.6919 33.5344 24.6101 33.5008Z" fill="#3E4957"/>
<path d="M18.625 25.625C18.625 22.7255 20.9755 20.375 23.875 20.375C26.7745 20.375 29.125 22.7255 29.125 25.625C29.125 28.5245 26.7745 30.875 23.875 30.875C20.9755 30.875 18.625 28.5245 18.625 25.625ZM23.875 22.125C21.942 22.125 20.375 23.692 20.375 25.625C20.375 27.558 21.942 29.125 23.875 29.125C25.808 29.125 27.375 27.558 27.375 25.625C27.375 23.692 25.808 22.125 23.875 22.125Z" fill="#3E4957"/>
<rect x="0.5" y="0.5" width="59" height="59" rx="29.5" stroke="#3E4957" shape-rendering="crispEdges"/>
</g>
<defs>
<filter id="filter0_d_3300_235833" x="0" y="0" width="64" height="64" filterUnits="userSpaceOnUse" color-interpolation-filters="sRGB">
<feFlood flood-opacity="0" result="BackgroundImageFix"/>
<feColorMatrix in="SourceAlpha" type="matrix" values="0 0 0 0 0 0 0 0 0 0 0 0 0 0 0 0 0 0 127 0" result="hardAlpha"/>
<feOffset dx="4" dy="4"/>
<feComposite in2="hardAlpha" operator="out"/>
<feColorMatrix type="matrix" values="0 0 0 0 0.752941 0 0 0 0 0.85098 0 0 0 0 1 0 0 0 1 0"/>
<feBlend mode="normal" in2="BackgroundImageFix" result="effect1_dropShadow_3300_235833"/>
<feBlend mode="normal" in="SourceGraphic" in2="effect1_dropShadow_3300_235833" result="shape"/>
</filter>
</defs>
</svg>
