<svg width="72" height="30" viewBox="0 0 72 30" fill="none" xmlns="http://www.w3.org/2000/svg">
<g filter="url(#filter0_d_3300_235704)">
<rect x="0.5" y="0.5" width="69" height="27" rx="4" fill="#F3F8FF" shape-rendering="crispEdges"/>
<path d="M11.9355 18.5V8.47852H15.7158C16.3812 8.47852 16.8893 8.51042 17.2402 8.57422C17.7324 8.65625 18.1449 8.81348 18.4775 9.0459C18.8102 9.27376 19.0768 9.59505 19.2773 10.0098C19.4824 10.4245 19.585 10.8802 19.585 11.377C19.585 12.2292 19.3138 12.9515 18.7715 13.5439C18.2292 14.1318 17.2493 14.4258 15.832 14.4258H13.2617V18.5H11.9355ZM13.2617 13.2432H15.8525C16.7093 13.2432 17.3177 13.0837 17.6777 12.7646C18.0378 12.4456 18.2178 11.9967 18.2178 11.418C18.2178 10.9987 18.1107 10.641 17.8965 10.3447C17.6868 10.0439 17.4089 9.8457 17.0625 9.75C16.8392 9.69076 16.4268 9.66113 15.8252 9.66113H13.2617V13.2432ZM20.6582 14.8701C20.6582 13.5257 21.0319 12.5299 21.7793 11.8828C22.4036 11.3451 23.1647 11.0762 24.0625 11.0762C25.0605 11.0762 25.8763 11.4043 26.5098 12.0605C27.1432 12.7122 27.46 13.6146 27.46 14.7676C27.46 15.7018 27.3187 16.4378 27.0361 16.9756C26.7581 17.5088 26.3503 17.9235 25.8125 18.2197C25.2793 18.516 24.696 18.6641 24.0625 18.6641C23.0462 18.6641 22.2236 18.3382 21.5947 17.6865C20.9704 17.0348 20.6582 16.096 20.6582 14.8701ZM21.9229 14.8701C21.9229 15.7998 22.1257 16.4971 22.5312 16.9619C22.9368 17.4222 23.4473 17.6523 24.0625 17.6523C24.6732 17.6523 25.1813 17.4199 25.5869 16.9551C25.9925 16.4902 26.1953 15.7816 26.1953 14.8291C26.1953 13.9313 25.9902 13.2523 25.5801 12.792C25.1745 12.3271 24.6686 12.0947 24.0625 12.0947C23.4473 12.0947 22.9368 12.3249 22.5312 12.7852C22.1257 13.2454 21.9229 13.9404 21.9229 14.8701ZM28.9092 21.2822V11.2402H30.0303V12.1836C30.2946 11.8145 30.5931 11.5387 30.9258 11.3564C31.2585 11.1696 31.6618 11.0762 32.1357 11.0762C32.7555 11.0762 33.3024 11.2357 33.7764 11.5547C34.2503 11.8737 34.6081 12.3249 34.8496 12.9082C35.0911 13.487 35.2119 14.1227 35.2119 14.8154C35.2119 15.5583 35.0775 16.2282 34.8086 16.8252C34.5443 17.4176 34.1569 17.8734 33.6465 18.1924C33.1406 18.5068 32.6074 18.6641 32.0469 18.6641C31.6367 18.6641 31.2676 18.5775 30.9395 18.4043C30.6159 18.2311 30.3493 18.0124 30.1396 17.748V21.2822H28.9092ZM30.0234 14.9111C30.0234 15.8454 30.2126 16.5358 30.5908 16.9824C30.9691 17.429 31.4271 17.6523 31.9648 17.6523C32.5117 17.6523 32.9788 17.4222 33.3662 16.9619C33.7581 16.4971 33.9541 15.7793 33.9541 14.8086C33.9541 13.8835 33.7627 13.1908 33.3799 12.7305C33.0016 12.2702 32.5482 12.04 32.0195 12.04C31.4954 12.04 31.0306 12.2861 30.625 12.7783C30.224 13.266 30.0234 13.9769 30.0234 14.9111ZM41.46 18.5V17.4336C40.8949 18.2539 40.127 18.6641 39.1562 18.6641C38.7279 18.6641 38.3268 18.582 37.9531 18.418C37.584 18.2539 37.3083 18.0488 37.126 17.8027C36.9482 17.5521 36.8229 17.2467 36.75 16.8867C36.6999 16.6452 36.6748 16.2624 36.6748 15.7383V11.2402H37.9053V15.2666C37.9053 15.9092 37.9303 16.3421 37.9805 16.5654C38.0579 16.889 38.222 17.1442 38.4727 17.3311C38.7233 17.5133 39.0332 17.6045 39.4023 17.6045C39.7715 17.6045 40.1178 17.5111 40.4414 17.3242C40.765 17.1328 40.9928 16.8753 41.125 16.5518C41.2617 16.2236 41.3301 15.7497 41.3301 15.1299V11.2402H42.5605V18.5H41.46ZM44.4678 18.5V8.47852H45.6982V18.5H44.4678ZM52.3496 17.6045C51.8939 17.9919 51.4541 18.2653 51.0303 18.4248C50.611 18.5843 50.1598 18.6641 49.6768 18.6641C48.8792 18.6641 48.2663 18.4704 47.8379 18.083C47.4095 17.6911 47.1953 17.1921 47.1953 16.5859C47.1953 16.2305 47.2751 15.9069 47.4346 15.6152C47.5986 15.319 47.8105 15.082 48.0703 14.9043C48.3346 14.7266 48.6309 14.5921 48.959 14.501C49.2005 14.4372 49.5651 14.3757 50.0527 14.3164C51.0462 14.1979 51.7777 14.0566 52.2471 13.8926C52.2516 13.724 52.2539 13.6169 52.2539 13.5713C52.2539 13.07 52.1377 12.7168 51.9053 12.5117C51.5908 12.2337 51.1237 12.0947 50.5039 12.0947C49.9251 12.0947 49.4967 12.1973 49.2188 12.4023C48.9453 12.6029 48.7425 12.9606 48.6104 13.4756L47.4072 13.3115C47.5166 12.7965 47.6966 12.3818 47.9473 12.0674C48.1979 11.7484 48.5602 11.5046 49.0342 11.3359C49.5081 11.1628 50.0573 11.0762 50.6816 11.0762C51.3014 11.0762 51.805 11.1491 52.1924 11.2949C52.5798 11.4408 52.8646 11.6253 53.0469 11.8486C53.2292 12.0674 53.3568 12.3454 53.4297 12.6826C53.4707 12.8923 53.4912 13.2705 53.4912 13.8174V15.458C53.4912 16.6019 53.5163 17.3265 53.5664 17.6318C53.6211 17.9326 53.7259 18.222 53.8809 18.5H52.5957C52.4681 18.2448 52.3861 17.9463 52.3496 17.6045ZM52.2471 14.8564C51.8005 15.0387 51.1305 15.1937 50.2373 15.3213C49.7314 15.3942 49.3737 15.4762 49.1641 15.5674C48.9544 15.6585 48.7926 15.793 48.6787 15.9707C48.5648 16.1439 48.5078 16.3376 48.5078 16.5518C48.5078 16.8799 48.6309 17.1533 48.877 17.3721C49.1276 17.5908 49.4922 17.7002 49.9707 17.7002C50.4447 17.7002 50.8662 17.5977 51.2354 17.3926C51.6045 17.1829 51.8757 16.8981 52.0488 16.5381C52.181 16.2601 52.2471 15.8499 52.2471 15.3076V14.8564ZM55.3916 18.5V11.2402H56.499V12.3408C56.7816 11.8258 57.0413 11.4863 57.2783 11.3223C57.5199 11.1582 57.7842 11.0762 58.0713 11.0762C58.486 11.0762 58.9076 11.2083 59.3359 11.4727L58.9121 12.6143C58.6113 12.4365 58.3105 12.3477 58.0098 12.3477C57.7409 12.3477 57.4993 12.4297 57.2852 12.5938C57.071 12.7533 56.9183 12.9766 56.8271 13.2637C56.6904 13.7012 56.6221 14.1797 56.6221 14.6992V18.5H55.3916Z" fill="#3A83F6"/>
<rect x="1" y="1" width="68" height="26" rx="3.5" stroke="#3A83F6" shape-rendering="crispEdges"/>
</g>
<defs>
<filter id="filter0_d_3300_235704" x="0.5" y="0.5" width="71" height="29" filterUnits="userSpaceOnUse" color-interpolation-filters="sRGB">
<feFlood flood-opacity="0" result="BackgroundImageFix"/>
<feColorMatrix in="SourceAlpha" type="matrix" values="0 0 0 0 0 0 0 0 0 0 0 0 0 0 0 0 0 0 127 0" result="hardAlpha"/>
<feOffset dx="2" dy="2"/>
<feComposite in2="hardAlpha" operator="out"/>
<feColorMatrix type="matrix" values="0 0 0 0 0.752941 0 0 0 0 0.85098 0 0 0 0 1 0 0 0 1 0"/>
<feBlend mode="normal" in2="BackgroundImageFix" result="effect1_dropShadow_3300_235704"/>
<feBlend mode="normal" in="SourceGraphic" in2="effect1_dropShadow_3300_235704" result="shape"/>
</filter>
</defs>
</svg>
